<svg width="63" height="20" viewBox="0 0 63 20" fill="none" xmlns="http://www.w3.org/2000/svg">
<g id="Logo" clip-path="url(#clip0_1_137)">
<path id="Vector" d="M14.9542 0C12.4939 0 10.1344 0.8067 8.39467 2.24264L2.71704 6.92893C0.977348 8.36487 0 10.3124 0 12.3431C0 16.5719 4.15327 20 9.27659 20C11.7369 20 14.0964 19.1933 15.8361 17.7573L19.7633 14.5158C19.7633 14.5157 19.7634 14.5159 19.7633 14.5158L31.206 5.07107C32.0369 4.38527 33.1638 4 34.3388 4C36.306 4 37.9738 5.05827 38.552 6.52271L42.1633 3.54197C40.5159 1.41223 37.6272 0 34.3388 0C31.8785 0 29.519 0.8067 27.7793 2.24264L12.4094 14.9289C11.5785 15.6147 10.4516 16 9.27659 16C6.82972 16 4.84615 14.3628 4.84615 12.3431C4.84615 11.3733 5.31293 10.4431 6.14379 9.75733L11.8214 5.07107C12.6523 4.38527 13.7792 4 14.9542 4C16.9215 4 18.5892 5.05832 19.1674 6.52281L22.7788 3.54205C21.1313 1.41227 18.2426 0 14.9542 0Z" fill="#394149"/>
<path id="Vector_2" d="M31.794 14.9289C30.9632 15.6147 29.8363 16 28.6612 16C26.6943 16 25.0266 14.942 24.4482 13.4778L20.837 16.4585C22.4846 18.5879 25.3731 20 28.6612 20C31.1215 20 33.4811 19.1933 35.2207 17.7573L50.5906 5.07107C51.4215 4.38527 52.5484 4 53.7234 4C56.1703 4 58.1539 5.63723 58.1539 7.65687C58.1539 8.62673 57.6871 9.55687 56.8562 10.2427L51.1786 14.9289C50.3478 15.6147 49.2209 16 48.0458 16C46.0787 16 44.411 14.9418 43.8327 13.4775L40.2215 16.4582C41.8689 18.5879 44.7576 20 48.0458 20C50.5062 20 52.8657 19.1933 54.6054 17.7573L60.283 13.0711C62.0226 11.6351 63 9.6876 63 7.65687C63 3.42809 58.8468 0 53.7234 0C51.2631 0 48.9036 0.8067 47.1639 2.24264L31.794 14.9289Z" fill="#394149"/>
</g>
<defs>
<clipPath id="clip0_1_137">
<rect width="63" height="20" fill="white"/>
</clipPath>
</defs>
</svg>
